HIERARCHY
ROOT Hips
{
	OFFSET 0.000000 0.000000 0.000000
	CHANNELS 6 Xposition Yposition Zposition Zrotation Yrotation Xrotation 
	JOINT LHipJoint
	{
		OFFSET 0.000000 0.000000 0.000000
		CHANNELS 3 Zrotation Yrotation Xrotation
		JOINT LeftUpLeg
		{
			OFFSET 1.363060 -1.794630 0.839290
			CHANNELS 3 Zrotation Yrotation Xrotation
			JOINT LeftLeg
			{
				OFFSET 2.448110 -6.726130 0.000000
				CHANNELS 3 Zrotation Yrotation Xrotation
				JOINT LeftFoot
				{
					OFFSET 2.562200 -7.039590 0.000000
					CHANNELS 3 Zrotation Yrotation Xrotation
					JOINT LeftToeBase
					{
						OFFSET 0.157640 -0.433110 2.322550
						CHANNELS 3 Zrotation Yrotation Xrotation
						End Site
						{
							OFFSET 0.000000 0.000000 0.000000
						}
					}
				}
			}
		}
	}
	JOINT RHipJoint
	{
		OFFSET 0.000000 0.000000 0.000000
		CHANNELS 3 Zrotation Yrotation Xrotation
		JOINT RightUpLeg
		{
			OFFSET -1.305520 -1.794630 0.839290
			CHANNELS 3 Zrotation Yrotation Xrotation
			JOINT RightLeg
			{
				OFFSET -2.542530 -6.985550 0.000000
				CHANNELS 3 Zrotation Yrotation Xrotation
				JOINT RightFoot
				{
					OFFSET -2.568260 -7.056230 0.000000
					CHANNELS 3 Zrotation Yrotation Xrotation
					JOINT RightToeBase
					{
						OFFSET -0.164730 -0.452590 2.363150
						CHANNELS 3 Zrotation Yrotation Xrotation
						End Site
						{
							OFFSET 0.000000 0.000000 0.000000
						}
					}
				}
			}
		}
	}
	JOINT LowerBack
	{
		OFFSET 0.000000 0.000000 0.000000
		CHANNELS 3 Zrotation Yrotation Xrotation
		JOINT Spine
		{
			OFFSET 0.028270 2.035590 -0.193380
			CHANNELS 3 Zrotation Yrotation Xrotation
			JOINT Spine1
			{
				OFFSET 0.056720 2.048850 -0.042750
				CHANNELS 3 Zrotation Yrotation Xrotation
				JOINT Neck
				{
					OFFSET 0.000000 0.000000 0.000000
					CHANNELS 3 Zrotation Yrotation Xrotation
					JOINT Neck1
					{
						OFFSET -0.054170 1.746240 0.172020
						CHANNELS 3 Zrotation Yrotation Xrotation
						JOINT Head
						{
							OFFSET 0.104070 1.761360 -0.123970
							CHANNELS 3 Zrotation Yrotation Xrotation
							End Site
							{
								OFFSET 0.000000 0.000000 0.000000
							}
						}
					}
				}
				JOINT LeftShoulder
				{
					OFFSET 0.000000 0.000000 0.000000
					CHANNELS 3 Zrotation Yrotation Xrotation
					JOINT LeftArm
					{
						OFFSET 3.362410 1.200890 -0.311210
						CHANNELS 3 Zrotation Yrotation Xrotation
						JOINT LeftForeArm
						{
							OFFSET 4.983000 -0.000000 -0.000000
							CHANNELS 3 Zrotation Yrotation Xrotation
							JOINT LeftHand
							{
								OFFSET 3.483560 -0.000000 -0.000000
								CHANNELS 3 Zrotation Yrotation Xrotation
								JOINT LeftFingerBase
								{
									OFFSET 0.000000 0.000000 0.000000
									CHANNELS 3 Zrotation Yrotation Xrotation
									JOINT LeftHandIndex1
									{
										OFFSET 0.715260 -0.000000 -0.000000
										CHANNELS 3 Zrotation Yrotation Xrotation
										End Site
										{
											OFFSET 0.000000 0.000000 0.000000
										}
									}
								}
								JOINT LThumb
								{
									OFFSET 0.000000 0.000000 0.000000
									CHANNELS 3 Zrotation Yrotation Xrotation
									End Site
									{
										OFFSET 0.000000 0.000000 0.000000
									}
								}
							}
						}
					}
				}
				JOINT RightShoulder
				{
					OFFSET 0.000000 0.000000 0.000000
					CHANNELS 3 Zrotation Yrotation Xrotation
					JOINT RightArm
					{
						OFFSET -3.136600 1.374050 -0.404650
						CHANNELS 3 Zrotation Yrotation Xrotation
						JOINT RightForeArm
						{
							OFFSET -5.241900 -0.000000 -0.000000
							CHANNELS 3 Zrotation Yrotation Xrotation
							JOINT RightHand
							{
								OFFSET -3.444170 -0.000000 -0.000000
								CHANNELS 3 Zrotation Yrotation Xrotation
								JOINT RightFingerBase
								{
									OFFSET 0.000000 0.000000 0.000000
									CHANNELS 3 Zrotation Yrotation Xrotation
									JOINT RightHandIndex1
									{
										OFFSET -0.622530 -0.000000 -0.000000
										CHANNELS 3 Zrotation Yrotation Xrotation
										End Site
										{
											OFFSET 0.000000 0.000000 0.000000
										}
									}
								}
								JOINT RThumb
								{
									OFFSET 0.000000 0.000000 0.000000
									CHANNELS 3 Zrotation Yrotation Xrotation
									End Site
									{
										OFFSET 0.000000 0.000000 0.000000
									}
								}
							}
						}
					}
				}
			}
		}
	}
}
MOTION
Frames: 9
Frame Time: 0.008333
3.297228 17.232320 1.181118 176.701083 -81.027235 -165.836089 -11.586301 2.113611 -0.182648 -6.036732 20.758068 -13.181849 -2.771982 -1.135278 -2.762204 0.621105 5.195986 1.707287 0.936700 0.000000 -35.896200 9.585483 -1.414937 2.527676 0.725353 -1.936078 -10.116852 2.201503 1.522673 -3.017832 -0.428654 -3.550319 2.442373 -1.250300 -0.000000 -44.423400 1.488065 -2.019789 -3.407882 -0.133148 -2.207917 -3.281384 -6.931450 -1.926074 0.141641 9.415764 -8.848489 -3.955361 -4.481842 -0.374126 0.988832 0.000000 0.000000 0.000000 14.373430 9.068781 -1.188394 -89.377289 -7.471941 24.654116 -178.478959 -49.641700 -179.956317 -4.455851 -6.909449 0.344545 0.403905 1.123380 0.000000 0.000000 0.000000 0.000000 0.000000 0.000000 0.000000 3.279873 -5.175291 -3.600511 89.119584 20.020807 33.729670 -179.634537 51.549694 179.863752 -10.708786 12.230070 -1.294706 0.311102 -1.169891 -0.000000 0.000000 0.000000 0.000000 0.000000 0.000000 0.000000 
3.309490 17.233258 1.165624 174.188012 -82.929542 -163.275231 -11.553803 2.088151 0.103484 -6.077983 19.348909 -13.526963 -2.737768 -1.132260 -2.543463 0.568334 4.768249 1.853051 0.895000 -0.000000 -36.015501 9.599196 -1.434752 2.355628 0.788560 -2.837132 -9.723488 2.143276 1.561387 -3.357338 -0.596562 -4.551917 2.320126 -1.445700 -0.000000 -44.163300 1.280022 -2.048148 -3.519125 -0.190803 -2.223058 -3.355391 -7.076920 -1.942810 -0.168412 9.328700 -8.644363 -3.419362 -4.481348 -0.378971 1.138176 0.000000 0.000000 0.000000 14.490793 8.009478 -1.235165 -88.276286 -8.205308 24.932831 -178.451313 -50.409033 -179.956413 -4.322958 -6.783198 0.328553 0.386985 1.117320 0.000000 0.000000 0.000000 0.000000 0.000000 0.000000 0.000000 3.157389 -5.153246 -3.525886 88.678370 20.091495 32.727839 -179.498108 51.406263 179.858440 -11.042575 11.937941 -1.303788 0.313858 -1.155932 -0.000000 0.000000 0.000000 0.000000 0.000000 0.000000 0.000000 
3.320679 17.233841 1.151188 169.235884 -84.886712 -158.239909 -11.553423 2.044380 0.394855 -6.137873 17.949338 -13.939505 -2.710685 -1.136198 -2.313122 0.504227 4.266822 2.016335 0.842200 0.000001 -36.175600 9.580838 -1.474514 2.193555 0.854783 -3.786077 -9.383448 2.090381 1.598675 -3.707510 -0.768612 -5.551838 2.207160 -1.640699 0.000000 -43.892899 1.030213 -2.124998 -3.652223 -0.236351 -2.282091 -3.420409 -7.156645 -2.008375 -0.410892 9.223630 -8.458351 -2.953458 -4.474100 -0.382739 1.268275 0.000000 0.000000 0.000000 14.536513 7.100340 -1.264245 -87.339491 -9.016452 25.101883 -178.384542 -50.862400 -179.955930 -4.239555 -6.765074 0.321309 0.373370 1.120719 -0.000000 0.000000 0.000000 0.000000 0.000000 0.000000 0.000000 2.974044 -5.171753 -3.480821 88.179312 20.330469 31.762053 -179.372489 51.252216 179.852588 -11.454760 11.660144 -1.322152 0.321353 -1.143307 -0.000000 0.000000 0.000000 0.000000 0.000000 0.000000 0.000000 
3.330340 17.234190 1.138345 155.419900 -86.979787 -144.306616 -11.593375 1.910884 0.666513 -6.209904 16.563393 -14.378975 -2.689649 -1.177755 -2.076641 0.415447 3.669580 2.226034 0.780500 0.000000 -36.374100 9.525244 -1.607993 2.071792 0.927230 -4.784182 -9.102717 2.035636 1.604926 -4.101935 -0.960462 -6.575417 2.099266 -1.835200 -0.000000 -43.607400 0.715236 -2.301250 -3.807403 -0.261092 -2.433236 -3.472842 -7.162128 -2.170383 -0.584938 9.114889 -8.279680 -2.549056 -4.457752 -0.385392 1.381019 0.000000 0.000000 0.000000 14.516826 6.346495 -1.279342 -86.639069 -9.914810 25.204523 -178.278823 -51.053568 -179.955046 -4.174902 -6.846464 0.319848 0.360817 1.133250 -0.000000 0.000000 0.000000 0.000000 0.000000 0.000000 0.000000 2.739813 -5.256406 -3.468770 87.584848 20.754942 30.815662 -179.252871 51.086175 179.846106 -11.944255 11.400656 -1.349415 0.333065 -1.131833 -0.000000 0.000000 0.000000 0.000000 0.000000 0.000000 0.000000 
3.338381 17.234525 1.127429 88.111402 -89.296800 -76.849197 -10.948444 1.692930 0.867461 -6.010314 15.201147 -14.801817 -2.720049 -1.306866 -1.785523 0.281020 2.911972 2.478132 0.710000 0.000000 -36.604900 10.127285 -1.825869 2.053212 1.332434 -5.826311 -8.916514 1.928355 1.521074 -4.588163 -1.196098 -7.687836 2.009401 -2.031300 0.000000 -43.299300 1.199657 -2.540655 -3.976953 -0.159414 -2.717479 -3.515301 -7.112895 -2.448648 -0.700690 9.008516 -8.102332 -2.190403 -4.432936 -0.386771 1.480991 0.000000 0.000000 0.000000 14.426591 5.742433 -1.278425 -86.255028 -10.907163 25.281306 -178.131439 -51.063150 -179.953571 -4.104689 -7.006076 0.321396 0.346926 1.154371 -0.000000 0.000000 0.000000 0.000000 0.000000 0.000000 0.000000 2.461258 -5.414820 -3.500041 86.819693 21.404268 29.873396 -179.134403 50.926829 179.838955 -12.498545 11.148865 -1.382681 0.347211 -1.119769 -0.000000 0.000000 0.000000 0.000000 0.000000 0.000000 0.000000 
3.344600 17.234964 1.120876 18.729038 -88.608747 -7.255430 -10.748966 2.157624 1.504155 -5.819795 13.235329 -15.612626 -2.669079 -1.119406 -1.595484 0.312424 2.605087 2.477816 0.644900 0.000000 -36.799500 10.261150 -1.371210 1.591389 1.754418 -7.585173 -8.597903 2.010339 1.789210 -4.975153 -1.188314 -8.193920 2.190680 -2.197501 0.000000 -42.975000 1.329988 -2.426243 -4.204469 -0.170938 -2.616448 -3.579268 -6.979968 -2.362507 -0.748104 8.872743 -7.909562 -1.920265 -4.396980 -0.386036 1.561648 0.000000 0.000000 0.000000 14.285549 5.573128 -1.310149 -86.217476 -11.893502 25.364599 -178.030339 -50.921844 -179.953460 -4.007868 -7.219117 0.323117 0.337216 1.179086 -0.000000 0.000000 0.000000 0.000000 0.000000 0.000000 0.000000 2.181670 -5.366311 -3.570668 85.871322 22.444585 28.937553 -179.101257 50.847063 179.832746 -13.069059 10.872985 -1.412772 0.368002 -1.108155 -0.000000 0.000000 0.000000 0.000000 0.000000 0.000000 0.000000 
3.351097 17.235589 1.114271 13.217946 -87.044863 -1.580612 -10.795965 2.192344 1.785898 -5.910236 12.206871 -16.056200 -2.672790 -1.115253 -1.643485 0.245157 2.045875 2.780445 0.574600 0.000000 -37.062700 10.198318 -1.366372 1.487174 1.811586 -8.343874 -8.403397 1.985516 1.866742 -5.382325 -1.318841 -9.029504 2.220659 -2.391900 0.000000 -42.629000 0.956595 -2.463810 -4.409036 -0.195477 -2.619586 -3.623756 -6.754228 -2.385221 -0.799561 8.738304 -7.653842 -1.596555 -4.349726 -0.385522 1.651828 0.000000 0.000000 0.000000 14.123821 5.429714 -1.349642 -86.420306 -12.894492 25.480401 -177.938690 -50.714282 -179.953958 -3.884513 -7.450821 0.323026 0.327271 1.204627 0.000000 0.000000 0.000000 0.000000 0.000000 0.000000 0.000000 1.937526 -5.333921 -3.648949 84.734501 23.831054 27.928615 -179.089734 50.930844 179.826981 -13.601907 10.523831 -1.426280 0.386561 -1.093458 -0.000000 0.000000 0.000000 0.000000 0.000000 0.000000 0.000000 
3.357079 17.236563 1.109979 10.631586 -85.541543 1.179488 -10.798375 2.210695 2.044320 -5.981850 11.319664 -16.494431 -2.687703 -1.128945 -1.729262 0.170773 1.464156 3.102448 0.498300 -0.000000 -37.323299 10.177126 -1.388026 1.433836 1.907040 -8.974303 -8.334072 1.954945 1.921725 -5.642408 -1.439229 -9.858612 2.178613 -2.593101 0.000000 -42.239100 0.630949 -2.490237 -4.643014 -0.200252 -2.613641 -3.675417 -6.442260 -2.401736 -0.856774 8.564530 -7.293639 -1.227812 -4.283871 -0.384121 1.754345 0.000000 0.000000 0.000000 13.887425 5.400286 -1.393173 -86.888978 -13.925277 25.717447 -177.865213 -50.561483 -179.954815 -3.744358 -7.678491 0.320954 0.317356 1.229690 0.000000 0.000000 0.000000 0.000000 0.000000 0.000000 0.000000 1.683082 -5.192979 -3.758461 83.334456 25.580749 26.747058 -179.096738 51.236555 179.822741 -14.003790 10.054522 -1.406294 0.397296 -1.071878 -0.000000 0.000000 0.000000 0.000000 0.000000 0.000000 0.000000 
3.364492 17.238008 1.107286 9.266241 -84.167429 2.678867 -10.780665 2.224993 2.275891 -6.045507 10.533507 -16.809311 -2.703584 -1.155055 -1.924846 0.101657 0.959553 3.465285 0.432100 0.000000 -37.561200 10.175758 -1.407440 1.390889 1.991070 -9.491583 -8.520279 1.912831 1.920580 -5.315925 -1.500404 -10.605566 1.832892 -2.785900 0.000000 -41.841400 0.305534 -2.494057 -4.856646 -0.193363 -2.580902 -3.736759 -6.029486 -2.395609 -0.970386 8.317248 -6.817291 -0.769525 -4.204299 -0.382679 1.881358 0.000000 0.000000 0.000000 13.580595 5.326392 -1.433372 -87.555409 -14.849457 26.031279 -177.855354 -50.460492 -179.956506 -3.599224 -7.871287 0.316631 0.311211 1.250636 0.000000 0.000000 0.000000 0.000000 0.000000 0.000000 0.000000 1.454612 -4.903019 -3.873829 81.600261 27.774408 25.329192 -179.129828 51.921707 179.820725 -14.223370 9.395300 -1.338823 0.396827 -1.040179 -0.000000 0.000000 0.000000 0.000000 0.000000 0.000000 0.000000 
